<mxfile host="app.diagrams.net" agent="Mozilla/5.0 (Macintosh; Intel Mac OS X 10_15_7) AppleWebKit/537.36 (KHTML, like Gecko) Chrome/128.0.0.0 Safari/537.36" version="24.7.14" pages="3">
  <diagram name="RegisterationFlow" id="EcnHnQK4JtItyVdQOY1d">
    <mxGraphModel dx="2947" dy="1096" grid="1" gridSize="10" guides="1" tooltips="1" connect="1" arrows="1" fold="1" page="1" pageScale="1" pageWidth="827" pageHeight="1169" math="0" shadow="0">
      <root>
        <mxCell id="0" />
        <mxCell id="1" parent="0" />
        <mxCell id="4SLoAGDwyVYEfKv5yelv-2" value="" style="rounded=0;whiteSpace=wrap;html=1;" vertex="1" parent="1">
          <mxGeometry x="60" y="500" width="120" height="440" as="geometry" />
        </mxCell>
        <mxCell id="4SLoAGDwyVYEfKv5yelv-3" value="register" style="rounded=1;whiteSpace=wrap;html=1;fillColor=#dae8fc;strokeColor=#6c8ebf;" vertex="1" parent="1">
          <mxGeometry x="60" y="500" width="120" height="60" as="geometry" />
        </mxCell>
        <mxCell id="4SLoAGDwyVYEfKv5yelv-8" style="edgeStyle=orthogonalEdgeStyle;rounded=0;orthogonalLoop=1;jettySize=auto;html=1;entryX=0;entryY=0.25;entryDx=0;entryDy=0;" edge="1" parent="1" source="4SLoAGDwyVYEfKv5yelv-4" target="4SLoAGDwyVYEfKv5yelv-6">
          <mxGeometry relative="1" as="geometry" />
        </mxCell>
        <mxCell id="4SLoAGDwyVYEfKv5yelv-9" style="edgeStyle=orthogonalEdgeStyle;rounded=0;orthogonalLoop=1;jettySize=auto;html=1;entryX=1;entryY=0.5;entryDx=0;entryDy=0;startArrow=classic;startFill=1;strokeWidth=2;" edge="1" parent="1" source="4SLoAGDwyVYEfKv5yelv-4" target="4SLoAGDwyVYEfKv5yelv-3">
          <mxGeometry relative="1" as="geometry" />
        </mxCell>
        <mxCell id="4SLoAGDwyVYEfKv5yelv-4" value="&lt;div style=&quot;color: rgb(204, 204, 204); background-color: rgb(31, 31, 31); font-family: Menlo, Monaco, &amp;quot;Courier New&amp;quot;, monospace; line-height: 18px; white-space: pre;&quot;&gt;&lt;span style=&quot;color: #ce9178;&quot;&gt;/api/auth/register&lt;/span&gt;&lt;/div&gt;" style="rounded=1;whiteSpace=wrap;html=1;" vertex="1" parent="1">
          <mxGeometry x="420" y="510" width="200" height="40" as="geometry" />
        </mxCell>
        <mxCell id="4SLoAGDwyVYEfKv5yelv-6" value="User" style="swimlane;childLayout=stackLayout;horizontal=1;startSize=50;horizontalStack=0;rounded=1;fontSize=14;fontStyle=0;strokeWidth=2;resizeParent=0;resizeLast=1;shadow=0;dashed=0;align=center;arcSize=4;whiteSpace=wrap;html=1;" vertex="1" parent="1">
          <mxGeometry x="730" y="490" width="160" height="120" as="geometry" />
        </mxCell>
        <mxCell id="4SLoAGDwyVYEfKv5yelv-7" value="&lt;b&gt;active = false&lt;/b&gt;" style="align=left;strokeColor=none;fillColor=none;spacingLeft=4;fontSize=12;verticalAlign=top;resizable=0;rotatable=0;part=1;html=1;" vertex="1" parent="4SLoAGDwyVYEfKv5yelv-6">
          <mxGeometry y="50" width="160" height="70" as="geometry" />
        </mxCell>
        <mxCell id="4SLoAGDwyVYEfKv5yelv-11" value="&lt;div style=&quot;color: rgb(204, 204, 204); background-color: rgb(31, 31, 31); font-family: Menlo, Monaco, &amp;quot;Courier New&amp;quot;, monospace; font-size: 12px; line-height: 18px; white-space: pre;&quot;&gt;&lt;span style=&quot;color: #4ec9b0;&quot;&gt;UserDisplayModel&lt;/span&gt;&lt;/div&gt;" style="swimlane;childLayout=stackLayout;horizontal=1;startSize=50;horizontalStack=0;rounded=1;fontSize=14;fontStyle=0;strokeWidth=2;resizeParent=0;resizeLast=1;shadow=0;dashed=0;align=center;arcSize=4;whiteSpace=wrap;html=1;fillColor=#d5e8d4;strokeColor=#82b366;" vertex="1" parent="1">
          <mxGeometry x="30" y="100" width="160" height="190" as="geometry" />
        </mxCell>
        <mxCell id="4SLoAGDwyVYEfKv5yelv-12" value="&lt;div style=&quot;color: rgb(204, 204, 204); background-color: rgb(31, 31, 31); font-family: Menlo, Monaco, &amp;quot;Courier New&amp;quot;, monospace; line-height: 18px; white-space-collapse: preserve;&quot;&gt;&lt;div&gt;  &lt;span style=&quot;color: #9cdcfe;&quot;&gt;username&lt;/span&gt;&lt;/div&gt;&lt;div&gt;  &lt;span style=&quot;color: #9cdcfe;&quot;&gt;name&lt;/span&gt;&lt;/div&gt;&lt;div&gt;  &lt;span style=&quot;color: #9cdcfe;&quot;&gt;email&lt;/span&gt;&lt;/div&gt;&lt;div&gt;  &lt;span style=&quot;color: #9cdcfe;&quot;&gt;phoneNumber&lt;/span&gt;&lt;/div&gt;&lt;div&gt;  &lt;span style=&quot;color: #9cdcfe;&quot;&gt;active&lt;/span&gt;&lt;/div&gt;&lt;div&gt;  &lt;span style=&quot;color: #9cdcfe;&quot;&gt;createdAt&lt;/span&gt;&lt;/div&gt;&lt;div&gt;  &lt;span style=&quot;color: #9cdcfe;&quot;&gt;updatedAt&lt;/span&gt;&lt;/div&gt;&lt;/div&gt;" style="align=left;strokeColor=none;fillColor=none;spacingLeft=4;fontSize=12;verticalAlign=top;resizable=0;rotatable=0;part=1;html=1;" vertex="1" parent="4SLoAGDwyVYEfKv5yelv-11">
          <mxGeometry y="50" width="160" height="140" as="geometry" />
        </mxCell>
        <mxCell id="4SLoAGDwyVYEfKv5yelv-13" value="&lt;div style=&quot;color: rgb(204, 204, 204); background-color: rgb(31, 31, 31); font-family: Menlo, Monaco, &amp;quot;Courier New&amp;quot;, monospace; font-size: 12px; line-height: 18px; white-space: pre;&quot;&gt;&lt;span style=&quot;color: #4ec9b0;&quot;&gt;AuthDisplayModel&lt;/span&gt;&lt;/div&gt;" style="swimlane;childLayout=stackLayout;horizontal=1;startSize=50;horizontalStack=0;rounded=1;fontSize=14;fontStyle=0;strokeWidth=2;resizeParent=0;resizeLast=1;shadow=0;dashed=0;align=center;arcSize=4;whiteSpace=wrap;html=1;fillColor=#d5e8d4;strokeColor=#82b366;" vertex="1" parent="1">
          <mxGeometry x="240" y="100" width="160" height="190" as="geometry" />
        </mxCell>
        <mxCell id="4SLoAGDwyVYEfKv5yelv-14" value="&lt;div style=&quot;color: rgb(204, 204, 204); background-color: rgb(31, 31, 31); font-family: Menlo, Monaco, &amp;quot;Courier New&amp;quot;, monospace; line-height: 18px; white-space-collapse: preserve;&quot;&gt;accessToken&lt;br/&gt;refreshToken&lt;/div&gt;&lt;div style=&quot;color: rgb(204, 204, 204); background-color: rgb(31, 31, 31); font-family: Menlo, Monaco, &amp;quot;Courier New&amp;quot;, monospace; line-height: 18px; white-space-collapse: preserve;&quot;&gt;userDisplayModel&lt;/div&gt;" style="align=left;strokeColor=none;fillColor=none;spacingLeft=4;fontSize=12;verticalAlign=top;resizable=0;rotatable=0;part=1;html=1;" vertex="1" parent="4SLoAGDwyVYEfKv5yelv-13">
          <mxGeometry y="50" width="160" height="140" as="geometry" />
        </mxCell>
        <mxCell id="4SLoAGDwyVYEfKv5yelv-15" style="edgeStyle=orthogonalEdgeStyle;rounded=0;orthogonalLoop=1;jettySize=auto;html=1;entryX=0.063;entryY=0.357;entryDx=0;entryDy=0;entryPerimeter=0;" edge="1" parent="1" source="4SLoAGDwyVYEfKv5yelv-12" target="4SLoAGDwyVYEfKv5yelv-14">
          <mxGeometry relative="1" as="geometry" />
        </mxCell>
        <mxCell id="4SLoAGDwyVYEfKv5yelv-17" value="&lt;span style=&quot;color: rgb(78, 201, 176); font-family: Menlo, Monaco, &amp;quot;Courier New&amp;quot;, monospace; font-size: 12px; font-style: normal; font-variant-ligatures: normal; font-variant-caps: normal; font-weight: 400; letter-spacing: normal; orphans: 2; text-align: center; text-indent: 0px; text-transform: none; widows: 2; word-spacing: 0px; -webkit-text-stroke-width: 0px; white-space: pre; background-color: rgb(31, 31, 31); text-decoration-thickness: initial; text-decoration-style: initial; text-decoration-color: initial; display: inline !important; float: none;&quot;&gt;&amp;lt;---AuthDisplayModel&lt;/span&gt;" style="text;whiteSpace=wrap;html=1;" vertex="1" parent="1">
          <mxGeometry x="240" y="500" width="150" height="30" as="geometry" />
        </mxCell>
        <mxCell id="4SLoAGDwyVYEfKv5yelv-21" value="&lt;div style=&quot;color: rgb(204, 204, 204); background-color: rgb(31, 31, 31); font-family: Menlo, Monaco, &amp;quot;Courier New&amp;quot;, monospace; line-height: 18px; white-space: pre;&quot;&gt;&lt;span style=&quot;color: #4ec9b0;&quot;&gt;RegisterPostDto---&amp;gt;&lt;/span&gt;&lt;/div&gt;" style="text;whiteSpace=wrap;html=1;" vertex="1" parent="1">
          <mxGeometry x="240" y="530" width="150" height="30" as="geometry" />
        </mxCell>
        <mxCell id="4SLoAGDwyVYEfKv5yelv-22" style="edgeStyle=orthogonalEdgeStyle;rounded=0;orthogonalLoop=1;jettySize=auto;html=1;entryX=0.463;entryY=1.007;entryDx=0;entryDy=0;entryPerimeter=0;" edge="1" parent="1" source="4SLoAGDwyVYEfKv5yelv-17" target="4SLoAGDwyVYEfKv5yelv-14">
          <mxGeometry relative="1" as="geometry" />
        </mxCell>
        <mxCell id="4SLoAGDwyVYEfKv5yelv-29" style="edgeStyle=orthogonalEdgeStyle;rounded=0;orthogonalLoop=1;jettySize=auto;html=1;entryX=0;entryY=0.5;entryDx=0;entryDy=0;startArrow=classic;startFill=1;strokeWidth=2;" edge="1" parent="1" source="4SLoAGDwyVYEfKv5yelv-24" target="4SLoAGDwyVYEfKv5yelv-28">
          <mxGeometry relative="1" as="geometry" />
        </mxCell>
        <mxCell id="4SLoAGDwyVYEfKv5yelv-53" style="edgeStyle=orthogonalEdgeStyle;rounded=0;orthogonalLoop=1;jettySize=auto;html=1;entryX=1;entryY=0.5;entryDx=0;entryDy=0;" edge="1" parent="1" source="4SLoAGDwyVYEfKv5yelv-24" target="4SLoAGDwyVYEfKv5yelv-52">
          <mxGeometry relative="1" as="geometry" />
        </mxCell>
        <mxCell id="4SLoAGDwyVYEfKv5yelv-24" value="verifyOTP" style="rounded=1;whiteSpace=wrap;html=1;fillColor=#f8cecc;strokeColor=#b85450;" vertex="1" parent="1">
          <mxGeometry x="60" y="570" width="120" height="60" as="geometry" />
        </mxCell>
        <mxCell id="4SLoAGDwyVYEfKv5yelv-25" value="Otp" style="swimlane;childLayout=stackLayout;horizontal=1;startSize=50;horizontalStack=0;rounded=1;fontSize=14;fontStyle=0;strokeWidth=2;resizeParent=0;resizeLast=1;shadow=0;dashed=0;align=center;arcSize=4;whiteSpace=wrap;html=1;" vertex="1" parent="1">
          <mxGeometry x="730" y="650" width="160" height="120" as="geometry" />
        </mxCell>
        <mxCell id="4SLoAGDwyVYEfKv5yelv-26" value="otp&lt;br&gt;user: foreign key to user table" style="align=left;strokeColor=none;fillColor=none;spacingLeft=4;fontSize=12;verticalAlign=top;resizable=0;rotatable=0;part=1;html=1;" vertex="1" parent="4SLoAGDwyVYEfKv5yelv-25">
          <mxGeometry y="50" width="160" height="70" as="geometry" />
        </mxCell>
        <mxCell id="4SLoAGDwyVYEfKv5yelv-31" style="edgeStyle=orthogonalEdgeStyle;rounded=0;orthogonalLoop=1;jettySize=auto;html=1;entryX=0;entryY=0.25;entryDx=0;entryDy=0;" edge="1" parent="1" source="4SLoAGDwyVYEfKv5yelv-28" target="4SLoAGDwyVYEfKv5yelv-26">
          <mxGeometry relative="1" as="geometry" />
        </mxCell>
        <mxCell id="4SLoAGDwyVYEfKv5yelv-28" value="&lt;div style=&quot;color: rgb(204, 204, 204); background-color: rgb(31, 31, 31); font-family: Menlo, Monaco, &amp;quot;Courier New&amp;quot;, monospace; line-height: 18px; white-space: pre;&quot;&gt;&lt;span style=&quot;color: #ce9178;&quot;&gt;/api/auth/&lt;/span&gt;&lt;span style=&quot;color: rgb(206, 145, 120);&quot;&gt;verify-otp&lt;/span&gt;&lt;/div&gt;" style="rounded=1;whiteSpace=wrap;html=1;" vertex="1" parent="1">
          <mxGeometry x="420" y="580" width="200" height="40" as="geometry" />
        </mxCell>
        <mxCell id="4SLoAGDwyVYEfKv5yelv-32" value="&lt;div style=&quot;color: rgb(204, 204, 204); background-color: rgb(31, 31, 31); font-family: Menlo, Monaco, &amp;quot;Courier New&amp;quot;, monospace; line-height: 18px; white-space: pre;&quot;&gt;&lt;span style=&quot;color: rgb(78, 201, 176);&quot;&gt;VerifyOtpDto&lt;/span&gt;&lt;span style=&quot;color: #4ec9b0;&quot;&gt;---&amp;gt;&lt;/span&gt;&lt;/div&gt;" style="text;whiteSpace=wrap;html=1;" vertex="1" parent="1">
          <mxGeometry x="240" y="610" width="150" height="30" as="geometry" />
        </mxCell>
        <mxCell id="4SLoAGDwyVYEfKv5yelv-33" value="&lt;div style=&quot;color: rgb(204, 204, 204); background-color: rgb(31, 31, 31); font-family: Menlo, Monaco, &amp;quot;Courier New&amp;quot;, monospace; font-size: 12px; line-height: 18px; white-space: pre;&quot;&gt;&lt;div style=&quot;line-height: 18px;&quot;&gt;&lt;span style=&quot;color: #4ec9b0;&quot;&gt;VerifyOtpDto&lt;/span&gt;&lt;/div&gt;&lt;/div&gt;" style="swimlane;childLayout=stackLayout;horizontal=1;startSize=50;horizontalStack=0;rounded=1;fontSize=14;fontStyle=0;strokeWidth=2;resizeParent=0;resizeLast=1;shadow=0;dashed=0;align=center;arcSize=4;whiteSpace=wrap;html=1;fillColor=#d5e8d4;strokeColor=#82b366;" vertex="1" parent="1">
          <mxGeometry x="440" y="100" width="160" height="190" as="geometry" />
        </mxCell>
        <mxCell id="4SLoAGDwyVYEfKv5yelv-34" value="&lt;div style=&quot;color: rgb(204, 204, 204); background-color: rgb(31, 31, 31); font-family: Menlo, Monaco, &amp;quot;Courier New&amp;quot;, monospace; line-height: 18px; white-space-collapse: preserve;&quot;&gt;username&lt;br/&gt;otp&lt;/div&gt;" style="align=left;strokeColor=none;fillColor=none;spacingLeft=4;fontSize=12;verticalAlign=top;resizable=0;rotatable=0;part=1;html=1;" vertex="1" parent="4SLoAGDwyVYEfKv5yelv-33">
          <mxGeometry y="50" width="160" height="140" as="geometry" />
        </mxCell>
        <mxCell id="4SLoAGDwyVYEfKv5yelv-36" value="&lt;span style=&quot;color: rgb(78, 201, 176); font-family: Menlo, Monaco, &amp;quot;Courier New&amp;quot;, monospace; font-size: 12px; font-style: normal; font-variant-ligatures: normal; font-variant-caps: normal; font-weight: 400; letter-spacing: normal; orphans: 2; text-align: center; text-indent: 0px; text-transform: none; widows: 2; word-spacing: 0px; -webkit-text-stroke-width: 0px; white-space: pre; background-color: rgb(31, 31, 31); text-decoration-thickness: initial; text-decoration-style: initial; text-decoration-color: initial; display: inline !important; float: none;&quot;&gt;&amp;lt;---AuthDisplayModel&lt;/span&gt;" style="text;whiteSpace=wrap;html=1;" vertex="1" parent="1">
          <mxGeometry x="230" y="570" width="150" height="30" as="geometry" />
        </mxCell>
        <mxCell id="4SLoAGDwyVYEfKv5yelv-37" value="Note: for register access, refresh will be empty strings" style="text;html=1;align=center;verticalAlign=middle;whiteSpace=wrap;rounded=0;" vertex="1" parent="1">
          <mxGeometry x="380" y="450" width="290" height="90" as="geometry" />
        </mxCell>
        <mxCell id="4SLoAGDwyVYEfKv5yelv-44" style="edgeStyle=orthogonalEdgeStyle;rounded=0;orthogonalLoop=1;jettySize=auto;html=1;entryX=0;entryY=0.5;entryDx=0;entryDy=0;" edge="1" parent="1" source="4SLoAGDwyVYEfKv5yelv-38" target="4SLoAGDwyVYEfKv5yelv-3">
          <mxGeometry relative="1" as="geometry" />
        </mxCell>
        <mxCell id="4SLoAGDwyVYEfKv5yelv-38" value="Signup" style="swimlane;fontStyle=0;childLayout=stackLayout;horizontal=1;startSize=30;horizontalStack=0;resizeParent=1;resizeParentMax=0;resizeLast=0;collapsible=1;marginBottom=0;whiteSpace=wrap;html=1;" vertex="1" parent="1">
          <mxGeometry x="-230" y="470" width="120" height="120" as="geometry" />
        </mxCell>
        <mxCell id="4SLoAGDwyVYEfKv5yelv-39" value="name" style="text;strokeColor=none;fillColor=none;align=left;verticalAlign=middle;spacingLeft=4;spacingRight=4;overflow=hidden;points=[[0,0.5],[1,0.5]];portConstraint=eastwest;rotatable=0;whiteSpace=wrap;html=1;" vertex="1" parent="4SLoAGDwyVYEfKv5yelv-38">
          <mxGeometry y="30" width="120" height="30" as="geometry" />
        </mxCell>
        <mxCell id="4SLoAGDwyVYEfKv5yelv-40" value="email or phone" style="text;strokeColor=none;fillColor=none;align=left;verticalAlign=middle;spacingLeft=4;spacingRight=4;overflow=hidden;points=[[0,0.5],[1,0.5]];portConstraint=eastwest;rotatable=0;whiteSpace=wrap;html=1;" vertex="1" parent="4SLoAGDwyVYEfKv5yelv-38">
          <mxGeometry y="60" width="120" height="30" as="geometry" />
        </mxCell>
        <mxCell id="4SLoAGDwyVYEfKv5yelv-41" value="password" style="text;strokeColor=none;fillColor=none;align=left;verticalAlign=middle;spacingLeft=4;spacingRight=4;overflow=hidden;points=[[0,0.5],[1,0.5]];portConstraint=eastwest;rotatable=0;whiteSpace=wrap;html=1;" vertex="1" parent="4SLoAGDwyVYEfKv5yelv-38">
          <mxGeometry y="90" width="120" height="30" as="geometry" />
        </mxCell>
        <mxCell id="4SLoAGDwyVYEfKv5yelv-49" style="edgeStyle=orthogonalEdgeStyle;rounded=0;orthogonalLoop=1;jettySize=auto;html=1;entryX=0;entryY=0.5;entryDx=0;entryDy=0;" edge="1" parent="1" source="4SLoAGDwyVYEfKv5yelv-45" target="4SLoAGDwyVYEfKv5yelv-24">
          <mxGeometry relative="1" as="geometry" />
        </mxCell>
        <mxCell id="4SLoAGDwyVYEfKv5yelv-45" value="OTP" style="swimlane;fontStyle=0;childLayout=stackLayout;horizontal=1;startSize=30;horizontalStack=0;resizeParent=1;resizeParentMax=0;resizeLast=0;collapsible=1;marginBottom=0;whiteSpace=wrap;html=1;" vertex="1" parent="1">
          <mxGeometry x="-230" y="610" width="120" height="90" as="geometry" />
        </mxCell>
        <mxCell id="4SLoAGDwyVYEfKv5yelv-46" value="otp" style="text;strokeColor=none;fillColor=none;align=left;verticalAlign=middle;spacingLeft=4;spacingRight=4;overflow=hidden;points=[[0,0.5],[1,0.5]];portConstraint=eastwest;rotatable=0;whiteSpace=wrap;html=1;" vertex="1" parent="4SLoAGDwyVYEfKv5yelv-45">
          <mxGeometry y="30" width="120" height="30" as="geometry" />
        </mxCell>
        <mxCell id="4SLoAGDwyVYEfKv5yelv-48" value="username" style="text;strokeColor=none;fillColor=none;align=left;verticalAlign=middle;spacingLeft=4;spacingRight=4;overflow=hidden;points=[[0,0.5],[1,0.5]];portConstraint=eastwest;rotatable=0;whiteSpace=wrap;html=1;" vertex="1" parent="4SLoAGDwyVYEfKv5yelv-45">
          <mxGeometry y="60" width="120" height="30" as="geometry" />
        </mxCell>
        <mxCell id="4SLoAGDwyVYEfKv5yelv-50" value="&lt;div style=&quot;color: rgb(204, 204, 204); background-color: rgb(31, 31, 31); font-family: Menlo, Monaco, &amp;quot;Courier New&amp;quot;, monospace; font-size: 12px; line-height: 18px; white-space: pre;&quot;&gt;&lt;div style=&quot;line-height: 18px;&quot;&gt;&lt;span style=&quot;color: rgb(78, 201, 176); text-align: left;&quot;&gt;RegisterPostDto&lt;/span&gt;&lt;br&gt;&lt;/div&gt;&lt;/div&gt;" style="swimlane;childLayout=stackLayout;horizontal=1;startSize=50;horizontalStack=0;rounded=1;fontSize=14;fontStyle=0;strokeWidth=2;resizeParent=0;resizeLast=1;shadow=0;dashed=0;align=center;arcSize=4;whiteSpace=wrap;html=1;fillColor=#d5e8d4;strokeColor=#82b366;" vertex="1" parent="1">
          <mxGeometry x="-180" y="100" width="160" height="190" as="geometry" />
        </mxCell>
        <mxCell id="4SLoAGDwyVYEfKv5yelv-51" value="&lt;div style=&quot;color: rgb(204, 204, 204); background-color: rgb(31, 31, 31); font-family: Menlo, Monaco, &amp;quot;Courier New&amp;quot;, monospace; line-height: 18px; white-space-collapse: preserve;&quot;&gt;name&lt;br/&gt;email: Optional&lt;br/&gt;phoneNumber: Optional&lt;br&gt;password&lt;/div&gt;" style="align=left;strokeColor=none;fillColor=none;spacingLeft=4;fontSize=12;verticalAlign=top;resizable=0;rotatable=0;part=1;html=1;" vertex="1" parent="4SLoAGDwyVYEfKv5yelv-50">
          <mxGeometry y="50" width="160" height="140" as="geometry" />
        </mxCell>
        <mxCell id="4SLoAGDwyVYEfKv5yelv-52" value="Dashboard" style="image;aspect=fixed;perimeter=ellipsePerimeter;html=1;align=center;shadow=0;dashed=0;fontColor=#4277BB;labelBackgroundColor=default;fontSize=12;spacingTop=3;image=img/lib/ibm/infrastructure/dashboard.svg;" vertex="1" parent="1">
          <mxGeometry x="-230" y="710" width="110" height="110" as="geometry" />
        </mxCell>
      </root>
    </mxGraphModel>
  </diagram>
  <diagram id="jX1VatbAYUlgAtAL0UVU" name="LoginFlow">
    <mxGraphModel dx="954" dy="493" grid="1" gridSize="10" guides="1" tooltips="1" connect="1" arrows="1" fold="1" page="1" pageScale="1" pageWidth="827" pageHeight="1169" math="0" shadow="0">
      <root>
        <mxCell id="0" />
        <mxCell id="1" parent="0" />
        <mxCell id="n2TAf22WdwMgngD82CHQ-1" value="" style="rounded=1;whiteSpace=wrap;html=1;" vertex="1" parent="1">
          <mxGeometry x="200" y="40" width="120" height="390" as="geometry" />
        </mxCell>
        <mxCell id="wn6qjrWJKWvbOemxNbtL-1" style="edgeStyle=orthogonalEdgeStyle;rounded=0;orthogonalLoop=1;jettySize=auto;html=1;entryX=0;entryY=0.5;entryDx=0;entryDy=0;startArrow=classic;startFill=1;strokeWidth=2;" edge="1" parent="1" target="JK7G5Ie7CIyuYFH6xdQ5-1">
          <mxGeometry relative="1" as="geometry">
            <mxPoint x="320" y="80" as="sourcePoint" />
          </mxGeometry>
        </mxCell>
        <mxCell id="SjVD32AkZMFrR3scmWZE-1" value="Login" style="swimlane;fontStyle=0;childLayout=stackLayout;horizontal=1;startSize=30;horizontalStack=0;resizeParent=1;resizeParentMax=0;resizeLast=0;collapsible=1;marginBottom=0;whiteSpace=wrap;html=1;" vertex="1" parent="1">
          <mxGeometry y="60" width="120" height="90" as="geometry" />
        </mxCell>
        <mxCell id="SjVD32AkZMFrR3scmWZE-2" value="email or phone" style="text;strokeColor=none;fillColor=none;align=left;verticalAlign=middle;spacingLeft=4;spacingRight=4;overflow=hidden;points=[[0,0.5],[1,0.5]];portConstraint=eastwest;rotatable=0;whiteSpace=wrap;html=1;" vertex="1" parent="SjVD32AkZMFrR3scmWZE-1">
          <mxGeometry y="30" width="120" height="30" as="geometry" />
        </mxCell>
        <mxCell id="SjVD32AkZMFrR3scmWZE-3" value="password" style="text;strokeColor=none;fillColor=none;align=left;verticalAlign=middle;spacingLeft=4;spacingRight=4;overflow=hidden;points=[[0,0.5],[1,0.5]];portConstraint=eastwest;rotatable=0;whiteSpace=wrap;html=1;" vertex="1" parent="SjVD32AkZMFrR3scmWZE-1">
          <mxGeometry y="60" width="120" height="30" as="geometry" />
        </mxCell>
        <mxCell id="SjVD32AkZMFrR3scmWZE-5" style="edgeStyle=orthogonalEdgeStyle;rounded=0;orthogonalLoop=1;jettySize=auto;html=1;" edge="1" parent="1" source="SjVD32AkZMFrR3scmWZE-2">
          <mxGeometry relative="1" as="geometry">
            <mxPoint x="200" y="80" as="targetPoint" />
          </mxGeometry>
        </mxCell>
        <mxCell id="JK7G5Ie7CIyuYFH6xdQ5-1" value="&lt;div style=&quot;color: rgb(204, 204, 204); background-color: rgb(31, 31, 31); font-family: Menlo, Monaco, &amp;quot;Courier New&amp;quot;, monospace; line-height: 18px; white-space: pre;&quot;&gt;&lt;span style=&quot;color: #ce9178;&quot;&gt;/api/auth/login&lt;/span&gt;&lt;/div&gt;" style="rounded=1;whiteSpace=wrap;html=1;" vertex="1" parent="1">
          <mxGeometry x="580" y="60" width="250" height="40" as="geometry" />
        </mxCell>
        <mxCell id="wn6qjrWJKWvbOemxNbtL-2" value="&lt;div style=&quot;color: #cccccc;background-color: #1f1f1f;font-family: Menlo, Monaco, &#39;Courier New&#39;, monospace;font-weight: normal;font-size: 12px;line-height: 18px;white-space: pre;&quot;&gt;&lt;div&gt;&lt;span style=&quot;color: #4ec9b0;&quot;&gt;LoginPostDto --&amp;gt;&lt;/span&gt;&lt;/div&gt;&lt;/div&gt;" style="text;whiteSpace=wrap;html=1;" vertex="1" parent="1">
          <mxGeometry x="400" y="50" width="90" height="25" as="geometry" />
        </mxCell>
        <mxCell id="wn6qjrWJKWvbOemxNbtL-3" value="&lt;div style=&quot;color: #cccccc;background-color: #1f1f1f;font-family: Menlo, Monaco, &#39;Courier New&#39;, monospace;font-weight: normal;font-size: 12px;line-height: 18px;white-space: pre;&quot;&gt;&lt;div&gt;&lt;span style=&quot;color: #4ec9b0;&quot;&gt;&amp;lt;--AuthDisplayModel&lt;/span&gt;&lt;/div&gt;&lt;/div&gt;" style="text;whiteSpace=wrap;html=1;" vertex="1" parent="1">
          <mxGeometry x="400" y="85" width="120" height="25" as="geometry" />
        </mxCell>
        <mxCell id="wn6qjrWJKWvbOemxNbtL-4" style="edgeStyle=orthogonalEdgeStyle;rounded=0;orthogonalLoop=1;jettySize=auto;html=1;exitX=0.5;exitY=1;exitDx=0;exitDy=0;" edge="1" parent="1" source="wn6qjrWJKWvbOemxNbtL-2" target="wn6qjrWJKWvbOemxNbtL-2">
          <mxGeometry relative="1" as="geometry" />
        </mxCell>
        <mxCell id="wn6qjrWJKWvbOemxNbtL-9" value="" style="group" vertex="1" connectable="0" parent="1">
          <mxGeometry x="380" y="150" width="190" height="260" as="geometry" />
        </mxCell>
        <mxCell id="wn6qjrWJKWvbOemxNbtL-10" value="" style="group" vertex="1" connectable="0" parent="wn6qjrWJKWvbOemxNbtL-9">
          <mxGeometry width="190" height="250" as="geometry" />
        </mxCell>
        <mxCell id="wn6qjrWJKWvbOemxNbtL-7" value="" style="rounded=0;whiteSpace=wrap;html=1;" vertex="1" parent="wn6qjrWJKWvbOemxNbtL-10">
          <mxGeometry width="190" height="250" as="geometry" />
        </mxCell>
        <mxCell id="wn6qjrWJKWvbOemxNbtL-8" value="" style="image;aspect=fixed;html=1;points=[];align=center;fontSize=12;image=img/lib/azure2/other/Resource_Guard.svg;" vertex="1" parent="wn6qjrWJKWvbOemxNbtL-10">
          <mxGeometry width="56.64" height="68" as="geometry" />
        </mxCell>
        <mxCell id="wn6qjrWJKWvbOemxNbtL-12" value="passport middleware" style="rounded=1;whiteSpace=wrap;html=1;" vertex="1" parent="wn6qjrWJKWvbOemxNbtL-10">
          <mxGeometry x="34" y="80" width="120" height="60" as="geometry" />
        </mxCell>
        <mxCell id="wn6qjrWJKWvbOemxNbtL-13" value="Active User Check" style="rounded=1;whiteSpace=wrap;html=1;" vertex="1" parent="wn6qjrWJKWvbOemxNbtL-10">
          <mxGeometry x="34" y="160" width="120" height="60" as="geometry" />
        </mxCell>
        <mxCell id="wn6qjrWJKWvbOemxNbtL-14" style="edgeStyle=orthogonalEdgeStyle;rounded=0;orthogonalLoop=1;jettySize=auto;html=1;entryX=0.005;entryY=0.34;entryDx=0;entryDy=0;entryPerimeter=0;" edge="1" parent="1" source="n2TAf22WdwMgngD82CHQ-1" target="wn6qjrWJKWvbOemxNbtL-7">
          <mxGeometry relative="1" as="geometry" />
        </mxCell>
        <mxCell id="wn6qjrWJKWvbOemxNbtL-15" value="PROTECTED ROUTES" style="whiteSpace=wrap;html=1;aspect=fixed;fillColor=#f8cecc;strokeColor=#b85450;" vertex="1" parent="1">
          <mxGeometry x="610" y="170" width="190" height="190" as="geometry" />
        </mxCell>
        <mxCell id="wn6qjrWJKWvbOemxNbtL-16" style="edgeStyle=orthogonalEdgeStyle;rounded=0;orthogonalLoop=1;jettySize=auto;html=1;entryX=1;entryY=0.5;entryDx=0;entryDy=0;" edge="1" parent="1" source="wn6qjrWJKWvbOemxNbtL-13" target="wn6qjrWJKWvbOemxNbtL-17">
          <mxGeometry relative="1" as="geometry" />
        </mxCell>
        <mxCell id="wn6qjrWJKWvbOemxNbtL-17" value="if false, send user to otp page ask for otp varification" style="rounded=1;whiteSpace=wrap;html=1;fillColor=#dae8fc;strokeColor=#6c8ebf;" vertex="1" parent="1">
          <mxGeometry x="180" y="310" width="120" height="60" as="geometry" />
        </mxCell>
        <mxCell id="wn6qjrWJKWvbOemxNbtL-18" value="if fails, user will be logged out" style="rounded=1;whiteSpace=wrap;html=1;fillColor=#e1d5e7;strokeColor=#9673a6;" vertex="1" parent="1">
          <mxGeometry x="180" y="235" width="120" height="60" as="geometry" />
        </mxCell>
        <mxCell id="wn6qjrWJKWvbOemxNbtL-19" style="edgeStyle=orthogonalEdgeStyle;rounded=0;orthogonalLoop=1;jettySize=auto;html=1;fillColor=#e1d5e7;strokeColor=#9673a6;" edge="1" parent="1" source="wn6qjrWJKWvbOemxNbtL-12" target="wn6qjrWJKWvbOemxNbtL-18">
          <mxGeometry relative="1" as="geometry" />
        </mxCell>
      </root>
    </mxGraphModel>
  </diagram>
  <diagram id="lrksiFyVcRM-orBjeOy0" name="Page-3">
    <mxGraphModel dx="954" dy="493" grid="1" gridSize="10" guides="1" tooltips="1" connect="1" arrows="1" fold="1" page="1" pageScale="1" pageWidth="827" pageHeight="1169" math="0" shadow="0">
      <root>
        <mxCell id="0" />
        <mxCell id="1" parent="0" />
        <mxCell id="wSqNqC_tQ44p3wqQPu8l-1" value="/auth" style="rounded=0;whiteSpace=wrap;html=1;" vertex="1" parent="1">
          <mxGeometry x="420" y="70" width="120" height="60" as="geometry" />
        </mxCell>
        <mxCell id="wSqNqC_tQ44p3wqQPu8l-2" value="/video-watch" style="rounded=0;whiteSpace=wrap;html=1;" vertex="1" parent="1">
          <mxGeometry x="420" y="160" width="120" height="60" as="geometry" />
        </mxCell>
        <mxCell id="wSqNqC_tQ44p3wqQPu8l-3" value="/forget-password ( throw expception )" style="rounded=1;whiteSpace=wrap;html=1;fillColor=#f8cecc;strokeColor=#b85450;" vertex="1" parent="1">
          <mxGeometry x="420" y="280" width="120" height="60" as="geometry" />
        </mxCell>
        <mxCell id="wSqNqC_tQ44p3wqQPu8l-8" style="edgeStyle=orthogonalEdgeStyle;rounded=0;orthogonalLoop=1;jettySize=auto;html=1;" edge="1" parent="1" source="wSqNqC_tQ44p3wqQPu8l-4" target="wSqNqC_tQ44p3wqQPu8l-1">
          <mxGeometry relative="1" as="geometry" />
        </mxCell>
        <mxCell id="wSqNqC_tQ44p3wqQPu8l-4" value="" style="shape=actor;whiteSpace=wrap;html=1;" vertex="1" parent="1">
          <mxGeometry x="80" y="130" width="40" height="60" as="geometry" />
        </mxCell>
        <mxCell id="wSqNqC_tQ44p3wqQPu8l-9" style="edgeStyle=orthogonalEdgeStyle;rounded=0;orthogonalLoop=1;jettySize=auto;html=1;" edge="1" parent="1" source="wSqNqC_tQ44p3wqQPu8l-5" target="wSqNqC_tQ44p3wqQPu8l-3">
          <mxGeometry relative="1" as="geometry" />
        </mxCell>
        <mxCell id="wSqNqC_tQ44p3wqQPu8l-5" value="" style="shape=actor;whiteSpace=wrap;html=1;" vertex="1" parent="1">
          <mxGeometry x="80" y="240" width="40" height="60" as="geometry" />
        </mxCell>
        <mxCell id="wSqNqC_tQ44p3wqQPu8l-7" style="edgeStyle=orthogonalEdgeStyle;rounded=0;orthogonalLoop=1;jettySize=auto;html=1;entryX=0;entryY=0.5;entryDx=0;entryDy=0;" edge="1" parent="1" source="wSqNqC_tQ44p3wqQPu8l-6" target="wSqNqC_tQ44p3wqQPu8l-2">
          <mxGeometry relative="1" as="geometry" />
        </mxCell>
        <mxCell id="wSqNqC_tQ44p3wqQPu8l-6" value="" style="shape=actor;whiteSpace=wrap;html=1;" vertex="1" parent="1">
          <mxGeometry x="80" y="20" width="40" height="60" as="geometry" />
        </mxCell>
        <mxCell id="wSqNqC_tQ44p3wqQPu8l-10" value="PM2" style="ellipse;whiteSpace=wrap;html=1;aspect=fixed;fillColor=#dae8fc;strokeColor=#6c8ebf;" vertex="1" parent="1">
          <mxGeometry x="680" y="110" width="80" height="80" as="geometry" />
        </mxCell>
      </root>
    </mxGraphModel>
  </diagram>
</mxfile>
